<svg xmlns="http://www.w3.org/2000/svg" width="30" height="45.025" viewBox="0 0 30 45.025">
  <g id="그룹_59" data-name="그룹 59" transform="translate(-1327.003 -635.921)">
    <rect id="사각형_384" data-name="사각형 384" width="20" height="19" transform="translate(1332 642)" fill="#fff"/>
    <g id="그룹_40" data-name="그룹 40">
      <path id="패스_70" data-name="패스 70" d="M-292.529-416.171a14.95,14.95,0,0,0-1.9-4.986,14.893,14.893,0,0,0-3.049-3.6,14.86,14.86,0,0,0-3.939-2.458,14.373,14.373,0,0,0-4.384-1.1c-.313-.025-.624-.066-.934-.1h-1.129a.58.58,0,0,1-.132.047c-.4.038-.794.066-1.189.107a13.907,13.907,0,0,0-4.456,1.28,14.818,14.818,0,0,0-4.89,3.67,15.041,15.041,0,0,0-2.9,4.933,14.962,14.962,0,0,0-.791,6.249,14.449,14.449,0,0,0,1.478,5.3c.354.714.783,1.39,1.181,2.079.725,1.264,1.456,2.522,2.181,3.785.665,1.156,1.324,2.318,1.989,3.475.786,1.368,1.577,2.736,2.362,4.1.731,1.269,1.453,2.544,2.184,3.813q1.356,2.361,2.72,4.714c.28.486.558.97.843,1.464a.524.524,0,0,0,.06-.066q1.047-1.817,2.093-3.637,1.021-1.776,2.043-3.555.862-1.492,1.717-2.986l1.854-3.239q.981-1.706,1.959-3.409c.6-1.052,1.214-2.1,1.81-3.156.722-1.272,1.481-2.527,2.134-3.837A13.158,13.158,0,0,0-292.3-412.5,15.147,15.147,0,0,0-292.529-416.171Zm-6.054,1.72h-.313a3.879,3.879,0,0,0-2.659.912l-.083.074c-1.906,1.7-2.629,4.024-5.1,5.689a9.423,9.423,0,0,1-1.791.942c-3.379,1.357-7.546.071-7.546.071s3.717-.258,4.211-3.093c.011-.066.022-.135.027-.2a4.45,4.45,0,0,0-1.082-3.1c-.582-.808-1.288-1.61-1.846-2.492-1.288-2.038-1.618-3.733-1-4.464,1.08-1.275,3.316.343,5.439,1.959a15.649,15.649,0,0,0,3.574,2.338c1.675.527,2.961-.19,4.266-.555a3.974,3.974,0,0,1,1.629-.17,1.377,1.377,0,0,1,1.129.69,3.552,3.552,0,0,0,.385.654,2.673,2.673,0,0,0,.522.352C-298.583-414.713-298.355-414.452-298.583-414.452Z" transform="translate(1649.282 1064.341)" fill="#f5da2f"/>
      <circle id="타원_10" data-name="타원 10" cx="0.5" cy="0.5" r="0.5" transform="translate(1348 648.5)" fill="red"/>
    </g>
  </g>
</svg>
