<svg xmlns="http://www.w3.org/2000/svg" width="275.647" height="80" viewBox="0 0 275.647 80">
  <g id="그룹_4" data-name="그룹 4" transform="translate(-34 -50)">
    <g id="그룹_18" data-name="그룹 18" transform="translate(-129.319 -333.416)">
      <g id="g78">
        <path id="path11" d="M236.627,420.915h-1.142a14.11,14.11,0,0,0-9.68,3.32c-8.63,7.472-10.6,18.47-25.369,24.407-12.3,4.943-27.467.263-27.467.263s13.532-.941,15.326-11.267c1.4-8.077-5.946-13.811-10.559-21.1-4.69-7.42-5.894-13.584-3.635-16.247,6.407-7.565,24.05,12.886,32.809,15.642,8.574,2.694,14.36-3.563,21.459-2.643a5.019,5.019,0,0,1,4.106,2.514,12.78,12.78,0,0,0,1.4,2.373,9.858,9.858,0,0,0,1.9,1.288C236.622,419.964,237.455,420.915,236.627,420.915Z" fill="#fff"/>
      </g>
      <rect id="사각형_13" data-name="사각형 13" width="80" height="80" transform="translate(163.319 383.416)" fill="none"/>
    </g>
    <text id="비둘기_멈춰_" data-name="비둘기 멈춰!" transform="translate(125.647 103.5)" fill="#fff" font-size="36" font-family="wemakeprice-bold, Wemakeprice" font-weight="700"><tspan x="0" y="0">비둘기 멈춰!</tspan></text>
  </g>
</svg>
